<?xml version="1.0" encoding="UTF-8"?>
<svg id="Layer_1" xmlns="http://www.w3.org/2000/svg" version="1.1" viewBox="0 0 5442.52 3061.42">
  <!-- Generator: Adobe Illustrator 29.1.0, SVG Export Plug-In . SVG Version: 2.1.0 Build 142)  -->
  <defs>
    <style>
      .st0 {
        fill: none;
        stroke: #fff;
        stroke-miterlimit: 10;
        stroke-width: 3.44px;
      }
    </style>
  </defs>
  <g>
    <line class="st0" x1="1548.91" y1="75.18" x2="1548.91" y2="413.9"/>
    <line class="st0" x1="1548.91" y1="503.9" x2="1548.91" y2="842.62"/>
    <line class="st0" x1="1548.91" y1="932.63" x2="1548.91" y2="1271.34"/>
    <line class="st0" x1="1548.91" y1="1361.35" x2="1548.91" y2="1700.07"/>
    <line class="st0" x1="1548.91" y1="1790.07" x2="1548.91" y2="2128.79"/>
    <line class="st0" x1="1548.91" y1="2218.8" x2="1548.91" y2="2557.51"/>
    <line class="st0" x1="1548.91" y1="2647.52" x2="1548.91" y2="2986.24"/>
  </g>
  <g>
    <line class="st0" x1="1977.17" y1="75.18" x2="1977.17" y2="413.9"/>
    <line class="st0" x1="1977.17" y1="503.9" x2="1977.17" y2="842.62"/>
    <line class="st0" x1="1977.17" y1="932.63" x2="1977.17" y2="1271.34"/>
    <line class="st0" x1="1977.17" y1="1361.35" x2="1977.17" y2="1700.07"/>
    <line class="st0" x1="1977.17" y1="1790.07" x2="1977.17" y2="2128.79"/>
    <line class="st0" x1="1977.17" y1="2218.8" x2="1977.17" y2="2557.51"/>
    <line class="st0" x1="1977.17" y1="2647.52" x2="1977.17" y2="2986.24"/>
  </g>
  <g>
    <line class="st0" x1="2405.44" y1="75.18" x2="2405.44" y2="413.9"/>
    <line class="st0" x1="2405.44" y1="503.9" x2="2405.44" y2="842.62"/>
    <line class="st0" x1="2405.44" y1="932.63" x2="2405.44" y2="1271.34"/>
    <line class="st0" x1="2405.44" y1="1361.35" x2="2405.44" y2="1700.07"/>
    <line class="st0" x1="2405.44" y1="1790.07" x2="2405.44" y2="2128.79"/>
    <line class="st0" x1="2405.44" y1="2218.8" x2="2405.44" y2="2557.51"/>
    <line class="st0" x1="2405.44" y1="2647.52" x2="2405.44" y2="2986.24"/>
  </g>
  <g>
    <line class="st0" x1="2833.7" y1="75.18" x2="2833.7" y2="413.9"/>
    <line class="st0" x1="2833.7" y1="503.9" x2="2833.7" y2="842.62"/>
    <line class="st0" x1="2833.7" y1="932.63" x2="2833.7" y2="1271.34"/>
    <line class="st0" x1="2833.7" y1="1361.35" x2="2833.7" y2="1700.07"/>
    <line class="st0" x1="2833.7" y1="1790.07" x2="2833.7" y2="2128.79"/>
    <line class="st0" x1="2833.7" y1="2218.8" x2="2833.7" y2="2557.51"/>
    <line class="st0" x1="2833.7" y1="2647.52" x2="2833.7" y2="2986.24"/>
  </g>
  <g>
    <line class="st0" x1="3261.97" y1="75.18" x2="3261.97" y2="413.9"/>
    <line class="st0" x1="3261.97" y1="503.9" x2="3261.97" y2="842.62"/>
    <line class="st0" x1="3261.97" y1="932.63" x2="3261.97" y2="1271.34"/>
    <line class="st0" x1="3261.97" y1="1361.35" x2="3261.97" y2="1700.07"/>
    <line class="st0" x1="3261.97" y1="1790.07" x2="3261.97" y2="2128.79"/>
    <line class="st0" x1="3261.97" y1="2218.8" x2="3261.97" y2="2557.51"/>
    <line class="st0" x1="3261.97" y1="2647.52" x2="3261.97" y2="2986.24"/>
  </g>
  <g>
    <line class="st0" x1="3690.24" y1="75.18" x2="3690.24" y2="413.9"/>
    <line class="st0" x1="3690.24" y1="503.9" x2="3690.24" y2="842.62"/>
    <line class="st0" x1="3690.24" y1="932.63" x2="3690.24" y2="1271.34"/>
    <line class="st0" x1="3690.24" y1="1361.35" x2="3690.24" y2="1700.07"/>
    <line class="st0" x1="3690.24" y1="1790.07" x2="3690.24" y2="2128.79"/>
    <line class="st0" x1="3690.24" y1="2218.8" x2="3690.24" y2="2557.51"/>
    <line class="st0" x1="3690.24" y1="2647.52" x2="3690.24" y2="2986.24"/>
  </g>
  <g>
    <line class="st0" x1="4118.5" y1="75.18" x2="4118.5" y2="413.9"/>
    <line class="st0" x1="4118.5" y1="503.9" x2="4118.5" y2="842.62"/>
    <line class="st0" x1="4118.5" y1="932.63" x2="4118.5" y2="1271.34"/>
    <line class="st0" x1="4118.5" y1="1361.35" x2="4118.5" y2="1700.07"/>
    <line class="st0" x1="4118.5" y1="1790.07" x2="4118.5" y2="2128.79"/>
    <line class="st0" x1="4118.5" y1="2218.8" x2="4118.5" y2="2557.51"/>
    <line class="st0" x1="4118.5" y1="2647.52" x2="4118.5" y2="2986.24"/>
  </g>
  <g>
    <line class="st0" x1="4546.77" y1="75.18" x2="4546.77" y2="413.9"/>
    <line class="st0" x1="4546.77" y1="503.9" x2="4546.77" y2="842.62"/>
    <line class="st0" x1="4546.77" y1="932.63" x2="4546.77" y2="1271.34"/>
    <line class="st0" x1="4546.77" y1="1361.35" x2="4546.77" y2="1700.07"/>
    <line class="st0" x1="4546.77" y1="1790.07" x2="4546.77" y2="2128.79"/>
    <line class="st0" x1="4546.77" y1="2218.8" x2="4546.77" y2="2557.51"/>
    <line class="st0" x1="4546.77" y1="2647.52" x2="4546.77" y2="2986.24"/>
  </g>
  <g>
    <line class="st0" x1="4975.03" y1="75.18" x2="4975.03" y2="413.9"/>
    <line class="st0" x1="4975.03" y1="503.9" x2="4975.03" y2="842.62"/>
    <line class="st0" x1="4975.03" y1="932.63" x2="4975.03" y2="1271.34"/>
    <line class="st0" x1="4975.03" y1="1361.35" x2="4975.03" y2="1700.07"/>
    <line class="st0" x1="4975.03" y1="1790.07" x2="4975.03" y2="2128.79"/>
    <line class="st0" x1="4975.03" y1="2218.8" x2="4975.03" y2="2557.51"/>
    <line class="st0" x1="4975.03" y1="2647.52" x2="4975.03" y2="2986.24"/>
  </g>
  <g>
    <g>
      <line class="st0" x1="1163.62" y1="458.98" x2="1502.34" y2="458.98"/>
      <line class="st0" x1="1592.34" y1="458.98" x2="1931.06" y2="458.98"/>
      <line class="st0" x1="2021.07" y1="458.98" x2="2359.78" y2="458.98"/>
      <line class="st0" x1="2449.79" y1="458.98" x2="2788.51" y2="458.98"/>
      <line class="st0" x1="2878.51" y1="458.98" x2="3217.23" y2="458.98"/>
      <line class="st0" x1="3307.24" y1="458.98" x2="3645.95" y2="458.98"/>
      <line class="st0" x1="3735.96" y1="458.98" x2="4074.68" y2="458.98"/>
    </g>
    <g>
      <line class="st0" x1="3735.96" y1="458.98" x2="4074.68" y2="458.98"/>
      <line class="st0" x1="4164.68" y1="458.98" x2="4503.4" y2="458.98"/>
      <line class="st0" x1="4593.4" y1="458.98" x2="4932.12" y2="458.98"/>
      <line class="st0" x1="5022.13" y1="458.98" x2="5360.84" y2="458.98"/>
    </g>
  </g>
  <g>
    <g>
      <line class="st0" x1="1163.62" y1="886.73" x2="1502.34" y2="886.73"/>
      <line class="st0" x1="1592.34" y1="886.73" x2="1931.06" y2="886.73"/>
      <line class="st0" x1="2021.07" y1="886.73" x2="2359.78" y2="886.73"/>
      <line class="st0" x1="2449.79" y1="886.73" x2="2788.51" y2="886.73"/>
      <line class="st0" x1="2878.51" y1="886.73" x2="3217.23" y2="886.73"/>
      <line class="st0" x1="3307.24" y1="886.73" x2="3645.95" y2="886.73"/>
      <line class="st0" x1="3735.96" y1="886.73" x2="4074.68" y2="886.73"/>
    </g>
    <g>
      <line class="st0" x1="3735.96" y1="886.73" x2="4074.68" y2="886.73"/>
      <line class="st0" x1="4164.68" y1="886.73" x2="4503.4" y2="886.73"/>
      <line class="st0" x1="4593.4" y1="886.73" x2="4932.12" y2="886.73"/>
      <line class="st0" x1="5022.13" y1="886.73" x2="5360.84" y2="886.73"/>
    </g>
  </g>
  <g>
    <g>
      <line class="st0" x1="1163.62" y1="1314.47" x2="1502.34" y2="1314.47"/>
      <line class="st0" x1="1592.34" y1="1314.47" x2="1931.06" y2="1314.47"/>
      <line class="st0" x1="2021.07" y1="1314.47" x2="2359.78" y2="1314.47"/>
      <line class="st0" x1="2449.79" y1="1314.47" x2="2788.51" y2="1314.47"/>
      <line class="st0" x1="2878.51" y1="1314.47" x2="3217.23" y2="1314.47"/>
      <line class="st0" x1="3307.24" y1="1314.47" x2="3645.95" y2="1314.47"/>
      <line class="st0" x1="3735.96" y1="1314.47" x2="4074.68" y2="1314.47"/>
    </g>
    <g>
      <line class="st0" x1="3735.96" y1="1314.47" x2="4074.68" y2="1314.47"/>
      <line class="st0" x1="4164.68" y1="1314.47" x2="4503.4" y2="1314.47"/>
      <line class="st0" x1="4593.4" y1="1314.47" x2="4932.12" y2="1314.47"/>
      <line class="st0" x1="5022.13" y1="1314.47" x2="5360.84" y2="1314.47"/>
    </g>
  </g>
  <g>
    <g>
      <line class="st0" x1="1163.62" y1="1742.22" x2="1502.34" y2="1742.22"/>
      <line class="st0" x1="1592.34" y1="1742.22" x2="1931.06" y2="1742.22"/>
      <line class="st0" x1="2021.07" y1="1742.22" x2="2359.78" y2="1742.22"/>
      <line class="st0" x1="2449.79" y1="1742.22" x2="2788.51" y2="1742.22"/>
      <line class="st0" x1="2878.51" y1="1742.22" x2="3217.23" y2="1742.22"/>
      <line class="st0" x1="3307.24" y1="1742.22" x2="3645.95" y2="1742.22"/>
      <line class="st0" x1="3735.96" y1="1742.22" x2="4074.68" y2="1742.22"/>
    </g>
    <g>
      <line class="st0" x1="3735.96" y1="1742.22" x2="4074.68" y2="1742.22"/>
      <line class="st0" x1="4164.68" y1="1742.22" x2="4503.4" y2="1742.22"/>
      <line class="st0" x1="4593.4" y1="1742.22" x2="4932.12" y2="1742.22"/>
      <line class="st0" x1="5022.13" y1="1742.22" x2="5360.84" y2="1742.22"/>
    </g>
  </g>
  <g>
    <g>
      <line class="st0" x1="1163.62" y1="2169.96" x2="1502.34" y2="2169.96"/>
      <line class="st0" x1="1592.34" y1="2169.96" x2="1931.06" y2="2169.96"/>
      <line class="st0" x1="2021.07" y1="2169.96" x2="2359.78" y2="2169.96"/>
      <line class="st0" x1="2449.79" y1="2169.96" x2="2788.51" y2="2169.96"/>
      <line class="st0" x1="2878.51" y1="2169.96" x2="3217.23" y2="2169.96"/>
      <line class="st0" x1="3307.24" y1="2169.96" x2="3645.95" y2="2169.96"/>
      <line class="st0" x1="3735.96" y1="2169.96" x2="4074.68" y2="2169.96"/>
    </g>
    <g>
      <line class="st0" x1="3735.96" y1="2169.96" x2="4074.68" y2="2169.96"/>
      <line class="st0" x1="4164.68" y1="2169.96" x2="4503.4" y2="2169.96"/>
      <line class="st0" x1="4593.4" y1="2169.96" x2="4932.12" y2="2169.96"/>
      <line class="st0" x1="5022.13" y1="2169.96" x2="5360.84" y2="2169.96"/>
    </g>
  </g>
  <g>
    <g>
      <line class="st0" x1="1163.62" y1="2597.7" x2="1502.34" y2="2597.7"/>
      <line class="st0" x1="1592.34" y1="2597.7" x2="1931.06" y2="2597.7"/>
      <line class="st0" x1="2021.07" y1="2597.7" x2="2359.78" y2="2597.7"/>
      <line class="st0" x1="2449.79" y1="2597.7" x2="2788.51" y2="2597.7"/>
      <line class="st0" x1="2878.51" y1="2597.7" x2="3217.23" y2="2597.7"/>
      <line class="st0" x1="3307.24" y1="2597.7" x2="3645.95" y2="2597.7"/>
      <line class="st0" x1="3735.96" y1="2597.7" x2="4074.68" y2="2597.7"/>
    </g>
    <g>
      <line class="st0" x1="3735.96" y1="2597.7" x2="4074.68" y2="2597.7"/>
      <line class="st0" x1="4164.68" y1="2597.7" x2="4503.4" y2="2597.7"/>
      <line class="st0" x1="4593.4" y1="2597.7" x2="4932.12" y2="2597.7"/>
      <line class="st0" x1="5022.13" y1="2597.7" x2="5360.84" y2="2597.7"/>
    </g>
  </g>
</svg>